# xmcd
#
# Track frame offsets:
#	210
#	9137
#	21464
#	29788
#	50513
#	64253
#	80682
#	100041
#	109723
#	121839
#	132749
#	145019
#	154490
#	163654
#	176095
#	193143
#	202930
#	213440
#	234408
#	248664
#	267825
#	304468
#
# Disc length: 4368 seconds
#
# Revision: 0
# Processed by: cddbd v1.5.2PL0 Copyright (c) Steve Scherf et al.
# Submitted via: audiograbber 1.83.01
#
DISCID=3f110e16
DTITLE=Jacek Kaczmarski - ¯ród³o
DYEAR=2003
DGENRE=Ballad
TTITLE0=O Krok
TTITLE1=Ob³awa
TTITLE2=Nie lubiê
TTITLE3=Miêdzy nami
TTITLE4=Piosenka napisana mimochodem
TTITLE5=Zród³o (W¹wóz)
TTITLE6=Nasza Klasa
TTITLE7=Postmodernizm
TTITLE8=Wojna Postu z Karnawa³em
TTITLE9=Przyczynek do legendy o sw. Jerzym
TTITLE10=Lekcja historii klasycznej
TTITLE11=Ballada Wrzesniowa
TTITLE12=Sen Katarzyny II
TTITLE13=Krajobraz po uczcie
TTITLE14=Zes³anie studentów (Malczewski)
TTITLE15=Modlitwa
TTITLE16=Zegar
TTITLE17=Bajka o G³upim Jasiu
TTITLE18=Wêdrówki z cieniem
TTITLE19=Po¿egnanie Okud¿awy
TTITLE20=Epitafium dla W.Wysockiego
TTITLE21=Mury
EXTD=
EXTT0=
EXTT1=
EXTT2=
EXTT3=
EXTT4=
EXTT5=
EXTT6=
EXTT7=
EXTT8=
EXTT9=
EXTT10=
EXTT11=
EXTT12=
EXTT13=
EXTT14=
EXTT15=
EXTT16=
EXTT17=
EXTT18=
EXTT19=
EXTT20=
EXTT21=
PLAYORDER=
